<?xml version="1.0" encoding="utf-8"?>
<?xml-stylesheet type="text/xsl" href="rss1.xsl"?>
<rss version="2.0" xmlns:atom="http://www.w3.org/2005/Atom" xmlns:content="http://purl.org/rss/1.0/modules/content/" xmlns:dc="http://purl.org/dc/elements/1.1/" xmlns:media="http://search.yahoo.com/mrss/">
<channel>
 <title>Getty</title>
 <link>http://www.gettyimg.com/</link>
 <atom:link href="http://www.gettyimg.com/" rel="self" type="application/rss+xml" />

 
                <item>
                <title><![CDATA[【Cinema Center】MOVIE - Assembled.The.Making.of.X-Men.97.2024.1080p.DSNP.WEB-DL.DDP5.1.H.264-Samuel]]></title>
                <link><![CDATA[https://sharemania.us/threads/assembled-the-making-of-x-men-97-2024-1080p-dsnp-web-dl-ddp5-1-h-264-samuel.246198/]]></link>
                <description><![CDATA[<article>
<blockquote class="messageText SelectQuoteContainer ugc baseHtml">
<div style="text-align: center"><b><span style="font-size: 26px">Assembled: The Making of X-Men '97</span></b><br>
<img src="https://i.imgur.com/s14vKJM.jpeg" class="bbCodeImage LbImage" alt="[​IMG]" data-url="https://i.imgur.com/s14vKJM.jpeg" style=""><br>
<b><a href="https://i.imgur.com/jgH90vp.jpeg" target="_blank" class="externalLink" rel="nofollow">Alternate Artwork 1</a></b> | <b><a href="https://i.imgur.com/nxakfAj.jpeg" target="_blank" class="externalLink" rel="nofollow">Alternate Artwork 2</a></b> | <b><a href="https://i.imgur.com/GE5W10b.jpeg" target="_blank" class="externalLink" rel="nofollow">Alternate Artwork 3</a></b> | <b><a href="https://i.imgur.com/lpEE40W.jpeg" target="_blank" class="externalLink" rel="nofollow">Alternate Artwork 4</a></b><br>
<br>
<img src="https://i.imgur.com/ACHyb5w.png" class="bbCodeImage LbImage" alt="[​IMG]" data-url="https://i.imgur.com/ACHyb5w.png" style=""> <img src="https://i.imgur.com/ckHEWYh.png" class="bbCodeImage LbImage" alt="[​IMG]" data-url="https://i.imgur.com/ckHEWYh.png" style=""> <img src="https://i.imgur.com/aNwcs8B.png" class="bbCodeImage LbImage" alt="[​IMG]" data-url="https://i.imgur.com/aNwcs8B.png" style=""> <img src="https://i.imgur.com/R7cyABL.png" class="bbCodeImage LbImage" alt="[​IMG]" data-url="https://i.imgur.com/R7cyABL.png" style=""><br>
2024 • 55m<br>
Documentary<br>
<br>
<div class="bbCodeBlock bbCodeQuote">
<aside>
<blockquote class="quoteContainer"><div class="quote"><b><span style="font-size: 15px"><span style="font-family: 'Arial'">Description</span></span></b><br>
In the early 90s, "X-Men: The Animated Series" debuted on television and touched millions hungry for something different. The series, unlike any cartoon that had come before it, explored themes of prejudice and social justice. Spend time with the original cast, along with new voices, as "Assembled" recalls the birth of "The Animated Series," and its revival thirty years later as "X-Men ‘97."</div><div class="quoteExpand">Click to expand...</div></blockquote>
</aside>
</div>
<div class="bbCodeBlock bbCodeQuote">
<aside>
<blockquote class="quoteContainer"><div class="quote"><b><span style="font-size: 15px"><span style="font-family: 'Arial'">More Information</span></span></b><br>
<b>Long Description:</b><br>
In the early 1990s, few beyond those who journeyed into the pages of Marvel comics had ever heard of “Rogue,” “Beast,” “Gambit,” or even “Wolverine.” But that sad state of affairs changed forever when “X-Men: The Animated Series" debuted on television and touched millions hungry for something different. The series was unlike any cartoon that had come before it, exploring themes of prejudice and social justice. The characters were super, but they were also outsiders, underdogs. Kids everywhere could relate – as well as adults. “Assembled” recalls the birth of “X-Men: The Animated Series” and its revival thirty years later as “X-Men ’97.” Spend time with the original cast members, along with new voices, as they reveal the stories behind the classic show and its uncompromising continuation.<br>
<br>
<br>
<br>
Some flashing lights sequences or patterns may affect photosensitive viewers.<br>
<b>Duration:</b> 55m<br>
<b>Release Date:</b> 2024<br>
<b>Genre:</b> Documentary<br>
<b>Rating:</b> <img src="https://i.imgur.com/ACHyb5w.png" class="bbCodeImage LbImage" alt="[​IMG]" data-url="https://i.imgur.com/ACHyb5w.png" style=""><br>
<b>Available in the following formats:</b> <img src="https://i.imgur.com/gx1o7rO.png" class="bbCodeImage LbImage" alt="[​IMG]" data-url="https://i.imgur.com/gx1o7rO.png" style=""> <img src="https://i.imgur.com/wGbLQp4.png" class="bbCodeImage LbImage" alt="[​IMG]" data-url="https://i.imgur.com/wGbLQp4.png" style=""> <img src="https://i.imgur.com/p2a3QKq.png" class="bbCodeImage LbImage" alt="[​IMG]" data-url="https://i.imgur.com/p2a3QKq.png" style=""></div><div class="quoteExpand quoteCut">Click to expand...</div></blockquote>
</aside>
</div>
<div class="bbCodeBlock bbCodeQuote">
<aside>
<blockquote class="quoteContainer"><div class="quote"><b><span style="font-size: 15px">Source</span></b><br>
<img src="https://i.imgur.com/I198e8q.png" class="bbCodeImage LbImage" alt="[​IMG]" data-url="https://i.imgur.com/I198e8q.png" style=""></div><div class="quoteExpand">Click to expand...</div></blockquote>
</aside>
</div>
<div class="bbCodeBlock bbCodeQuote">
<aside>
<blockquote class="quoteContainer"><div class="quote"><b><span style="font-size: 15px">Release Name</span></b><br>
Assembled.The.Making.of.X-Men.97.2024.1080p.DSNP.WEB-DL.DDP5.1.H.264-Samuel</div><div class="quoteExpand">Click to expand...</div></blockquote>
</aside>
</div>
<div class="ToggleTriggerAnchor bbCodeSpoilerContainer">
<button type="button" class="button bbCodeSpoilerButton ToggleTrigger Tooltip JsOnly" data-target="> .SpoilerTarget"><span>Spoiler: <span class="SpoilerTitle">Media Information</span></span></button>
<div class="SpoilerTarget bbCodeSpoilerText">General<br>
Complete name : Assembled.The.Making.of.X-Men.97.2024.1080p.DSNP.WEB-DL.DDP5.1.H.264-Samuel.mkv<br>
Format : Matroska<br>
Format version : Version 4<br>
File size : 2.87 GiB<br>
Duration : 55 min 39 s<br>
Overall bit rate mode : Variable<br>
Overall bit rate : 7 396 kb/s<br>
Frame rate : 23.976 FPS<br>
Encoded date : 2024-06-03 19:20:18 UTC<br>
Writing application : mkvmerge v84.0 ('Sleeper') 64-bit<br>
Writing library : libebml v1.4.5 + libmatroska v1.7.1<br>
<br>
Video<br>
ID : 1<br>
Format : AVC<br>
Format/Info : Advanced Video Codec<br>
Format profile : High@L4<br>
Format settings : CABAC / 4 Ref Frames<br>
Format settings, CABAC : Yes<br>
Format settings, Reference frames : 4 frames<br>
Codec ID : V_MPEG4/ISO/AVC<br>
Duration : 55 min 39 s<br>
Bit rate mode : Variable<br>
Bit rate : 7 007 kb/s<br>
Maximum bit rate : 12.7 Mb/s<br>
Width : 1 920 pixels<br>
Height : 1 080 pixels<br>
Display aspect ratio : 16:9<br>
Frame rate mode : Constant<br>
Frame rate : 23.976 (24000/1001) FPS<br>
Color space : YUV<br>
Chroma subsampling : 4:2:0<br>
Bit depth : 8 bits<br>
Scan type : Progressive<br>
Bits/(Pixel*Frame) : 0.141<br>
Time code of first frame : 00:00:00;00<br>
Stream size : 2.72 GiB (95%)<br>
Default : Yes<br>
Forced : No<br>
Color range : Limited<br>
Color primaries : BT.709<br>
Transfer characteristics : BT.709<br>
Matrix coefficients : BT.709<br>
<br>
Audio #1<br>
ID : 2<br>
Format : E-AC-3<br>
Format/Info : Enhanced AC-3<br>
Commercial name : Dolby Digital Plus<br>
Codec ID : A_EAC3<br>
Duration : 55 min 39 s<br>
Bit rate mode : Constant<br>
Bit rate : 256 kb/s<br>
Channel(s) : 6 channels<br>
Channel layout : L R C LFE Ls Rs<br>
Sampling rate : 48.0 kHz<br>
Frame rate : 31.250 FPS (1536 SPF)<br>
Compression mode : Lossy<br>
Stream size : 102 MiB (3%)<br>
Language : English<br>
Service kind : Complete Main<br>
Default : Yes<br>
Forced : No<br>
Dialog Normalization : -27 dB<br>
compr : -0.28 dB<br>
mixlevel : 105 dB<br>
roomtyp : Small<br>
dialnorm_Average : -27 dB<br>
dialnorm_Minimum : -27 dB<br>
dialnorm_Maximum : -27 dB<br>
<br>
Audio #2<br>
ID : 3<br>
Format : AAC LC<br>
Format/Info : Advanced Audio Codec Low Complexity<br>
Codec ID : A_AAC-2<br>
Duration : 55 min 39 s<br>
Bit rate : 125 kb/s<br>
Channel(s) : 2 channels<br>
Channel layout : L R<br>
Sampling rate : 48.0 kHz<br>
Frame rate : 46.875 FPS (1024 SPF)<br>
Compression mode : Lossy<br>
Stream size : 49.9 MiB (2%)<br>
Title : Audio Description<br>
Language : English<br>
Default : No<br>
Forced : No<br>
<br>
Text #1<br>
ID : 4<br>
Format : UTF-8<br>
Codec ID : S_TEXT/UTF8<br>
Codec ID/Info : UTF-8 Plain Text<br>
Duration : 55 min 31 s<br>
Bit rate : 131 b/s<br>
Frame rate : 0.335 FPS<br>
Count of elements : 1116<br>
Stream size : 53.5 KiB (0%)<br>
Title : SDH<br>
Language : English<br>
Default : No<br>
Forced : No<br>
<br>
Text #2<br>
ID : 5<br>
Format : UTF-8<br>
Codec ID : S_TEXT/UTF8<br>
Codec ID/Info : UTF-8 Plain Text<br>
Duration : 55 min 33 s<br>
Bit rate : 122 b/s<br>
Frame rate : 0.335 FPS<br>
Count of elements : 1116<br>
Stream size : 49.7 KiB (0%)<br>
Language : Czech<br>
Default : No<br>
Forced : No<br>
<br>
Text #3<br>
ID : 6<br>
Format : UTF-8<br>
Codec ID : S_TEXT/UTF8<br>
Codec ID/Info : UTF-8 Plain Text<br>
Duration : 55 min 33 s<br>
Bit rate : 113 b/s<br>
Frame rate : 0.252 FPS<br>
Count of elements : 840<br>
Stream size : 46.2 KiB (0%)<br>
Language : Danish<br>
Default : No<br>
Forced : No<br>
<br>
Text #4<br>
ID : 7<br>
Format : UTF-8<br>
Codec ID : S_TEXT/UTF8<br>
Codec ID/Info : UTF-8 Plain Text<br>
Duration : 55 min 33 s<br>
Bit rate : 112 b/s<br>
Frame rate : 0.424 FPS<br>
Count of elements : 1412<br>
Stream size : 45.7 KiB (0%)<br>
Language : German<br>
Default : No<br>
Forced : No<br>
<br>
Text #5<br>
ID : 8<br>
Format : UTF-8<br>
Codec ID : S_TEXT/UTF8<br>
Codec ID/Info : UTF-8 Plain Text<br>
Duration : 55 min 33 s<br>
Bit rate : 215 b/s<br>
Frame rate : 0.338 FPS<br>
Count of elements : 1126<br>
Stream size : 87.8 KiB (0%)<br>
Language : Greek<br>
Default : No<br>
Forced : No<br>
<br>
Text #6<br>
ID : 9<br>
Format : UTF-8<br>
Codec ID : S_TEXT/UTF8<br>
Codec ID/Info : UTF-8 Plain Text<br>
Duration : 55 min 33 s<br>
Bit rate : 123 b/s<br>
Frame rate : 0.336 FPS<br>
Count of elements : 1119<br>
Stream size : 50.2 KiB (0%)<br>
Title : Latin American<br>
Language : Spanish<br>
Default : No<br>
Forced : No<br>
<br>
Text #7<br>
ID : 10<br>
Format : UTF-8<br>
Codec ID : S_TEXT/UTF8<br>
Codec ID/Info : UTF-8 Plain Text<br>
Duration : 55 min 33 s<br>
Bit rate : 115 b/s<br>
Frame rate : 0.337 FPS<br>
Count of elements : 1122<br>
Stream size : 46.9 KiB (0%)<br>
Title : European<br>
Language : Spanish<br>
Default : No<br>
Forced : No<br>
<br>
Text #8<br>
ID : 11<br>
Format : UTF-8<br>
Codec ID : S_TEXT/UTF8<br>
Codec ID/Info : UTF-8 Plain Text<br>
Duration : 55 min 33 s<br>
Bit rate : 102 b/s<br>
Frame rate : 0.336 FPS<br>
Count of elements : 1121<br>
Stream size : 41.5 KiB (0%)<br>
Language : Finnish<br>
Default : No<br>
Forced : No<br>
<br>
Text #9<br>
ID : 12<br>
Format : UTF-8<br>
Codec ID : S_TEXT/UTF8<br>
Codec ID/Info : UTF-8 Plain Text<br>
Duration : 55 min 35 s<br>
Bit rate : 111 b/s<br>
Frame rate : 0.355 FPS<br>
Count of elements : 1183<br>
Stream size : 45.6 KiB (0%)<br>
Language : French<br>
Default : No<br>
Forced : No<br>
<br>
Text #10<br>
ID : 13<br>
Format : UTF-8<br>
Codec ID : S_TEXT/UTF8<br>
Codec ID/Info : UTF-8 Plain Text<br>
Duration : 55 min 33 s<br>
Bit rate : 127 b/s<br>
Frame rate : 0.337 FPS<br>
Count of elements : 1125<br>
Stream size : 51.7 KiB (0%)<br>
Language : Hungarian<br>
Default : No<br>
Forced : No<br>
<br>
Text #11<br>
ID : 14<br>
Format : UTF-8<br>
Codec ID : S_TEXT/UTF8<br>
Codec ID/Info : UTF-8 Plain Text<br>
Duration : 55 min 33 s<br>
Bit rate : 115 b/s<br>
Frame rate : 0.336 FPS<br>
Count of elements : 1119<br>
Stream size : 47.2 KiB (0%)<br>
Language : Italian<br>
Default : No<br>
Forced : No<br>
<br>
Text #12<br>
ID : 15<br>
Format : UTF-8<br>
Codec ID : S_TEXT/UTF8<br>
Codec ID/Info : UTF-8 Plain Text<br>
Duration : 55 min 37 s<br>
Bit rate : 98 b/s<br>
Frame rate : 0.259 FPS<br>
Count of elements : 865<br>
Stream size : 40.2 KiB (0%)<br>
Language : Japanese<br>
Default : No<br>
Forced : No<br>
<br>
Text #13<br>
ID : 16<br>
Format : UTF-8<br>
Codec ID : S_TEXT/UTF8<br>
Codec ID/Info : UTF-8 Plain Text<br>
Duration : 55 min 33 s<br>
Bit rate : 113 b/s<br>
Frame rate : 0.338 FPS<br>
Count of elements : 1127<br>
Stream size : 46.3 KiB (0%)<br>
Language : Korean<br>
Default : No<br>
Forced : No<br>
<br>
Text #14<br>
ID : 17<br>
Format : UTF-8<br>
Codec ID : S_TEXT/UTF8<br>
Codec ID/Info : UTF-8 Plain Text<br>
Duration : 55 min 33 s<br>
Bit rate : 112 b/s<br>
Frame rate : 0.278 FPS<br>
Count of elements : 926<br>
Stream size : 45.9 KiB (0%)<br>
Language : Dutch<br>
Default : No<br>
Forced : No<br>
<br>
Text #15<br>
ID : 18<br>
Format : UTF-8<br>
Codec ID : S_TEXT/UTF8<br>
Codec ID/Info : UTF-8 Plain Text<br>
Duration : 55 min 33 s<br>
Bit rate : 106 b/s<br>
Frame rate : 0.334 FPS<br>
Count of elements : 1114<br>
Stream size : 43.4 KiB (0%)<br>
Language : Norwegian<br>
Default : No<br>
Forced : No<br>
<br>
Text #16<br>
ID : 19<br>
Format : UTF-8<br>
Codec ID : S_TEXT/UTF8<br>
Codec ID/Info : UTF-8 Plain Text<br>
Duration : 55 min 33 s<br>
Bit rate : 118 b/s<br>
Frame rate : 0.336 FPS<br>
Count of elements : 1120<br>
Stream size : 48.2 KiB (0%)<br>
Language : Polish<br>
Default : No<br>
Forced : No<br>
<br>
Text #17<br>
ID : 20<br>
Format : UTF-8<br>
Codec ID : S_TEXT/UTF8<br>
Codec ID/Info : UTF-8 Plain Text<br>
Duration : 55 min 33 s<br>
Bit rate : 124 b/s<br>
Frame rate : 0.336 FPS<br>
Count of elements : 1121<br>
Stream size : 50.8 KiB (0%)<br>
Title : Brazilian<br>
Language : Portuguese<br>
Default : No<br>
Forced : No<br>
<br>
Text #18<br>
ID : 21<br>
Format : UTF-8<br>
Codec ID : S_TEXT/UTF8<br>
Codec ID/Info : UTF-8 Plain Text<br>
Duration : 55 min 33 s<br>
Bit rate : 125 b/s<br>
Frame rate : 0.336 FPS<br>
Count of elements : 1121<br>
Stream size : 51.2 KiB (0%)<br>
Title : European<br>
Language : Portuguese<br>
Default : No<br>
Forced : No<br>
<br>
Text #19<br>
ID : 22<br>
Format : UTF-8<br>
Codec ID : S_TEXT/UTF8<br>
Codec ID/Info : UTF-8 Plain Text<br>
Duration : 55 min 33 s<br>
Bit rate : 127 b/s<br>
Frame rate : 0.335 FPS<br>
Count of elements : 1117<br>
Stream size : 51.9 KiB (0%)<br>
Language : Romanian<br>
Default : No<br>
Forced : No<br>
<br>
Text #20<br>
ID : 23<br>
Format : UTF-8<br>
Codec ID : S_TEXT/UTF8<br>
Codec ID/Info : UTF-8 Plain Text<br>
Duration : 55 min 33 s<br>
Bit rate : 118 b/s<br>
Frame rate : 0.335 FPS<br>
Count of elements : 1118<br>
Stream size : 48.3 KiB (0%)<br>
Language : Slovak<br>
Default : No<br>
Forced : No<br>
<br>
Text #21<br>
ID : 24<br>
Format : UTF-8<br>
Codec ID : S_TEXT/UTF8<br>
Codec ID/Info : UTF-8 Plain Text<br>
Duration : 55 min 33 s<br>
Bit rate : 90 b/s<br>
Frame rate : 0.208 FPS<br>
Count of elements : 692<br>
Stream size : 36.7 KiB (0%)<br>
Language : Swedish<br>
Default : No<br>
Forced : No<br>
<br>
Text #22<br>
ID : 25<br>
Format : UTF-8<br>
Codec ID : S_TEXT/UTF8<br>
Codec ID/Info : UTF-8 Plain Text<br>
Duration : 55 min 33 s<br>
Bit rate : 98 b/s<br>
Frame rate : 0.338 FPS<br>
Count of elements : 1127<br>
Stream size : 40.1 KiB (0%)<br>
Title : Traditional, Hong Kong<br>
Language : Chinese<br>
Default : No<br>
Forced : No<br>
<br>
Text #23<br>
ID : 26<br>
Format : UTF-8<br>
Codec ID : S_TEXT/UTF8<br>
Codec ID/Info : UTF-8 Plain Text<br>
Duration : 55 min 33 s<br>
Bit rate : 89 b/s<br>
Frame rate : 0.338 FPS<br>
Count of elements : 1127<br>
Stream size : 36.5 KiB (0%)<br>
Title : Traditional<br>
Language : Chinese<br>
Default : No<br>
Forced : No<br>
<br>
Menu<br>
00:00:00.000 : en:Scene 1<br>
00:07:08.679 : en:Scene 2<br>
00:15:09.159 : en:Scene 3<br>
00:29:34.441 : en:Scene 4<br>
00:44:56.947 : en:Scene 5<br>
00:54:56.839 : en:Credits</div>
</div><br>
<b>Screenshots</b><br>
<img src="https://i.imgur.com/MnTjSym.png" class="bbCodeImage LbImage" alt="[​IMG]" data-url="https://i.imgur.com/MnTjSym.png" style=""><br>
<br>
<b>Download</b><br>
<div class="bbCodeBlock bbCodeVfcHH HiddenContent">
<div class="attribution type">Hidden Content:</div>
<blockquote>You must reply before you can see the hidden data contained here.</blockquote>
</div></div>
<div class="messageTextEndMarker">&nbsp;</div>
</blockquote>
</article>]]></description>
                <author><![CDATA[Samuel]]></author>
                </item>

                </channel></rss>